<?xml version="1.0" standalone="no"?>
<!DOCTYPE svg PUBLIC "-//W3C//DTD SVG 20010904//EN"
 "http://www.w3.org/TR/2001/REC-SVG-20010904/DTD/svg10.dtd">
<svg version="1.0" xmlns="http://www.w3.org/2000/svg"
 width="176.000000pt" height="176.000000pt" viewBox="0 0 176.000000 176.000000"
 preserveAspectRatio="xMidYMid meet">
<metadata>
Created by potrace 1.14, written by Peter Selinger 2001-2017
</metadata>
<g transform="translate(0.000000,176.000000) scale(0.100000,-0.100000)"
fill="#000000" stroke="none">
<path d="M0 1656 c0 -101 1 -105 22 -109 l23 -4 -22 -2 c-22 -1 -23 -5 -23
-90 0 -77 2 -90 17 -94 17 -4 17 -5 1 -6 -16 -1 -18 -13 -18 -110 0 -78 4
-111 13 -114 8 -4 7 -6 -3 -6 -13 -1 -13 -2 0 -11 11 -7 17 -2 27 21 12 29 48
43 37 14 -5 -11 -2 -13 10 -9 26 10 19 32 -11 37 l-28 4 33 8 c17 4 32 12 32
16 0 5 11 7 24 3 18 -4 25 -1 28 13 4 15 7 14 18 -9 7 -16 18 -28 23 -28 5 0
4 6 -2 14 -10 12 -9 13 8 9 12 -3 18 -10 14 -20 -3 -9 11 -31 36 -57 39 -40
42 -46 35 -80 -3 -21 -17 -50 -30 -66 -27 -32 -32 -49 -8 -30 13 11 19 10 37
-8 20 -21 20 -22 4 -58 -12 -24 -15 -47 -11 -70 6 -34 -14 -134 -28 -134 -4 0
-16 -9 -27 -21 -24 -26 -46 -17 -31 12 6 10 16 19 23 19 7 0 12 11 12 24 0 18
-3 22 -12 14 -7 -6 -13 -7 -13 -2 0 5 -8 -7 -19 -26 -10 -19 -17 -38 -14 -42
6 -11 -2 -10 -32 4 -14 6 -25 17 -25 24 0 7 -12 34 -26 61 -14 26 -23 37 -20
23 18 -74 18 -106 2 -119 -15 -12 -19 -12 -31 5 -47 65 -44 67 -45 -46 0 -71
4 -110 13 -119 9 -11 9 -13 0 -7 -10 6 -13 -45 -13 -238 l0 -246 880 0 c873 0
880 0 880 20 0 17 -7 20 -39 20 -32 0 -44 6 -65 31 -14 17 -26 36 -26 42 0 22
-153 102 -177 93 -8 -3 -17 4 -23 18 -10 28 -35 39 -58 27 -14 -7 -17 -4 -18
15 -1 17 8 32 27 46 39 29 37 38 -8 31 -45 -7 -55 -19 -47 -55 4 -23 2 -26
-15 -21 -34 9 -47 42 -43 110 3 56 6 62 29 68 16 4 29 1 37 -8 6 -8 28 -20 48
-27 31 -9 38 -17 44 -45 7 -39 24 -49 59 -33 30 14 51 -2 183 -129 63 -61 92
-83 92 -71 0 10 -4 18 -10 18 -5 0 -10 7 -10 16 0 9 -11 30 -25 46 -14 17 -24
35 -22 41 7 23 27 17 47 -15 l20 -33 0 201 0 202 -27 6 c-95 23 -253 69 -249
73 3 4 195 -43 259 -63 16 -5 17 4 16 129 l-1 134 -26 11 -27 12 28 -4 27 -3
0 168 c0 166 0 168 -22 172 l-23 4 23 2 22 1 0 256 0 255 -547 -5 c-302 -2
-566 -7 -588 -10 -30 -4 -34 -3 -15 3 15 6 -98 9 -292 10 l-318 1 0 -104z
m1068 87 c-10 -2 -26 -2 -35 0 -10 3 -2 5 17 5 19 0 27 -2 18 -5z m-59 -7 c-2
-2 -26 -6 -54 -9 -34 -4 -42 -3 -25 3 25 8 87 13 79 6z m-349 -32 c-115 -23
-248 -39 -237 -28 8 8 275 52 317 52 19 0 -17 -11 -80 -24z m230 16 c-8 -5
-31 -9 -50 -8 l-35 1 40 7 c59 11 61 11 45 0z m-97 -17 c-7 -2 -19 -2 -25 0
-7 3 -2 5 12 5 14 0 19 -2 13 -5z m652 -32 c-32 -13 -158 -24 -152 -14 4 6 34
11 69 12 34 1 65 4 67 7 2 2 11 4 20 3 12 0 10 -3 -4 -8z m-1047 -6 c-5 -5
-163 -34 -187 -35 -35 0 7 16 67 26 74 13 128 17 120 9z m827 -14 c-8 -13 -45
-15 -45 -2 0 5 10 11 23 13 27 5 31 3 22 -11z m-85 -11 c0 -5 -4 -10 -10 -10
-5 0 -10 5 -10 10 0 6 5 10 10 10 6 0 10 -4 10 -10z m-965 -10 c-3 -5 -23 -9
-43 -9 l-37 1 30 8 c44 11 57 11 50 0z m924 5 c-3 -3 -48 -7 -100 -9 -57 -3
-74 -2 -44 2 75 10 150 14 144 7z m-762 -11 c-3 -3 -12 -4 -19 -1 -8 3 -5 6 6
6 11 1 17 -2 13 -5z m556 -11 c-7 -2 -21 -2 -30 0 -10 3 -4 5 12 5 17 0 24 -2
18 -5z m-616 -39 c-3 -3 -12 -4 -19 -1 -8 3 -5 6 6 6 11 1 17 -2 13 -5z m-59
-11 c-10 -2 -28 -2 -40 0 -13 2 -5 4 17 4 22 1 32 -1 23 -4z m692 -4 c0 -3
-21 -6 -47 -6 -38 -1 -43 1 -23 7 29 9 70 9 70 -1z m67 5 c-3 -3 -12 -4 -19
-1 -8 3 -5 6 6 6 11 1 17 -2 13 -5z m-859 -11 c-10 -2 -28 -2 -40 0 -13 2 -5
4 17 4 22 1 32 -1 23 -4z m652 -2 c0 -5 -34 -11 -75 -13 -82 -3 -105 9 -27 15
93 7 102 7 102 -2z m37 3 c-3 -3 -12 -4 -19 -1 -8 3 -5 6 6 6 11 1 17 -2 13
-5z m319 -12 c5 1 20 -4 33 -11 13 -7 36 -11 52 -9 16 3 31 0 33 -6 3 -7 9 -5
15 4 10 13 11 13 11 0 1 -11 4 -10 15 4 15 19 15 19 15 -2 0 -24 10 -28 28
-10 17 17 25 3 12 -21 -6 -12 -7 -21 -1 -21 5 0 12 6 14 13 3 6 10 -3 17 -20
7 -18 15 -31 20 -28 4 3 13 -2 20 -10 10 -12 10 -18 1 -29 -9 -11 -9 -16 0
-22 9 -5 7 -11 -6 -21 -17 -12 -17 -13 -2 -13 9 0 17 -4 17 -10 0 -5 8 -10 18
-11 9 0 1 -6 -18 -13 -34 -13 -34 -14 -10 -18 19 -4 15 -6 -15 -8 -39 -2 -39
-3 -10 -10 21 -5 11 -7 -35 -5 l-64 2 -17 39 c-24 54 -23 21 1 -49 38 -107 24
-128 -68 -102 -30 9 -57 14 -60 11 -3 -3 0 -6 6 -6 7 0 12 -4 12 -9 0 -5 -9
-7 -20 -4 -22 6 -26 -7 -8 -25 15 -15 50 -15 82 -1 20 10 28 9 41 -5 9 -9 21
-14 26 -11 14 9 11 -4 -8 -36 -22 -38 -30 -37 -27 4 2 17 1 23 -2 12 -12 -46
-14 -49 -26 -37 -19 19 -30 14 -17 -9 11 -21 10 -22 -21 -16 -32 7 -32 7 -17
-17 18 -27 13 -36 -21 -36 -31 0 -73 45 -106 113 -24 49 -25 50 -26 21 0 -17
7 -48 15 -67 20 -49 20 -51 -16 -30 -39 23 -69 71 -70 114 -2 33 -2 33 -6 5
-5 -30 23 -105 43 -118 6 -4 21 -15 33 -25 l22 -18 -32 1 c-25 1 -38 9 -60 39
-16 21 -29 32 -29 24 1 -8 14 -30 30 -49 40 -46 38 -53 -10 -27 -48 26 -51 49
-20 158 22 82 40 112 50 83 5 -13 9 -6 13 23 4 23 3 53 -3 67 -5 14 -7 40 -3
56 4 20 0 36 -9 48 -15 17 -21 52 -8 52 3 0 11 -5 18 -12 9 -9 12 -7 12 10 0
14 6 22 16 22 11 0 14 5 10 17 -4 10 -4 14 0 10 4 -4 16 1 27 10 10 10 21 17
23 15 2 -2 19 0 36 3 28 7 30 9 15 20 -9 7 -17 16 -17 20 0 4 6 2 14 -4 8 -6
18 -11 22 -9z m-521 -2 c4 -6 -11 -10 -37 -9 -36 1 -39 2 -18 9 36 11 48 11
55 0z m-97 -7 c-10 -2 -26 -2 -35 0 -10 3 -2 5 17 5 19 0 27 -2 18 -5z m542
-2 c0 -16 -29 -33 -47 -28 -16 4 -15 6 5 12 12 4 22 11 22 16 0 5 5 9 10 9 6
0 10 -4 10 -9z m-607 -8 c-7 -2 -19 -2 -25 0 -7 3 -2 5 12 5 14 0 19 -2 13 -5z
m-345 -30 c-10 -2 -28 -2 -40 0 -13 2 -5 4 17 4 22 1 32 -1 23 -4z m507 -24
c-71 -3 -179 -6 -240 -6 l-110 1 130 6 c72 3 180 6 240 6 l110 1 -130 -8z
m-23 -46 c-40 -2 -103 -2 -140 0 -37 2 -4 3 73 3 77 0 107 -2 67 -3z m-409
-50 c-29 -2 -77 -2 -105 0 -29 2 -6 3 52 3 58 0 81 -1 53 -3z m640 -10 c-24
-2 -62 -2 -85 0 -24 2 -5 4 42 4 47 0 66 -2 43 -4z m647 -12 c0 -14 -18 -23
-31 -15 -8 4 -7 9 2 15 18 11 29 11 29 0z m-1372 -8 c-10 -2 -26 -2 -35 0 -10
3 -2 5 17 5 19 0 27 -2 18 -5z m392 -13 c41 -5 6 -6 -93 -3 -87 3 -183 9 -215
14 -35 4 2 5 93 2 83 -3 179 -9 215 -13z m211 -7 c3 -28 9 -45 23 -59 9 -8 16
-12 16 -7 0 4 20 9 44 10 51 2 85 -22 61 -44 -10 -10 -16 -9 -25 2 -7 8 -16
12 -21 9 -13 -8 33 -43 48 -37 16 6 17 -9 1 -25 -9 -9 -8 -12 4 -12 14 0 15
-5 6 -37 -6 -21 -17 -51 -26 -68 l-16 -30 -6 28 -5 28 -34 -26 c-48 -35 -58
-31 -27 10 27 35 22 44 -15 25 -17 -10 -22 -4 -48 52 l-30 63 5 -70 c5 -66 4
-69 -10 -45 -8 14 -16 39 -17 55 l-1 30 -7 -30 -7 -30 -11 31 c-9 27 -8 37 8
63 10 17 21 31 24 31 4 0 3 -6 -1 -12 -4 -7 4 -2 18 12 15 14 24 27 20 30 -4
3 -13 12 -20 21 -10 14 -10 18 3 23 11 4 14 2 10 -7 -3 -6 0 -4 7 6 13 18 27
23 29 10z m-69 -53 c10 0 18 -4 18 -9 0 -6 -9 -8 -20 -6 -27 5 -40 14 -40 28
0 8 3 8 12 -1 7 -7 20 -12 30 -12z m266 -88 c2 -73 0 -86 -19 -110 l-22 -27 6
25 c14 61 18 147 8 173 -10 25 -9 28 6 25 15 -3 18 -16 21 -86z m452 46 c0
-36 -4 -35 -14 5 -4 16 -2 27 4 27 5 0 10 -14 10 -32z m-426 -25 c-9 -65 -14
-67 -14 -5 0 30 4 52 11 52 7 0 8 -16 3 -47z m-329 7 c-8 -16 -18 -49 -21 -73
-5 -38 -9 -43 -28 -40 -15 3 -41 -13 -89 -57 -54 -48 -72 -58 -83 -50 -7 7
-17 9 -22 6 -10 -6 -30 13 -31 29 0 6 10 20 21 33 12 12 16 22 10 22 -7 0 -12
-5 -12 -12 0 -6 -3 -9 -6 -5 -10 10 15 73 37 92 10 10 28 19 39 20 11 1 32 13
48 27 28 27 50 34 115 37 l38 1 -16 -30z m284 -184 c-7 -14 -16 -26 -21 -26
-5 0 -1 13 8 30 21 35 30 33 13 -4z m-79 -46 c-24 -33 -46 -38 -76 -15 -18 15
-18 15 6 10 16 -3 36 2 55 15 39 26 40 25 15 -10z m435 -82 c-15 -22 -22 -37
-16 -34 13 8 14 4 5 -18 -9 -24 -60 -21 -67 4 -6 22 8 28 16 8 2 -7 8 -10 12
-6 11 11 -4 28 -26 28 -10 0 -19 7 -19 15 0 15 10 19 40 16 9 -1 29 12 45 29
41 43 47 14 10 -42z m314 45 c159 -27 168 -29 159 -38 -5 -5 -339 53 -347 60
-9 10 36 4 188 -22z m-475 -14 c-33 -35 -64 -55 -64 -40 0 9 78 71 89 71 3 0
-8 -14 -25 -31z m-535 -28 c34 -18 72 -51 58 -51 -3 0 -23 9 -44 21 -21 11
-29 14 -18 5 50 -39 85 -71 85 -78 0 -4 -15 -12 -32 -17 -26 -7 -28 -9 -10
-10 12 -1 22 -5 22 -11 0 -5 11 -12 25 -16 35 -9 31 -21 -7 -28 -92 -16 -140
-17 -187 -6 -66 15 -68 35 -3 26 26 -3 54 -1 62 4 11 7 2 10 -32 10 -43 0 -48
2 -48 23 0 21 4 23 38 20 30 -3 34 -2 19 7 -11 7 -16 18 -12 30 4 13 -1 22
-15 30 -11 6 -20 15 -20 21 0 6 14 1 31 -11 16 -12 33 -19 36 -16 4 3 2 6 -4
6 -6 0 -13 9 -16 20 -3 11 -1 17 4 14 5 -3 12 2 15 10 8 20 7 20 53 -3z m441
-31 c-8 -5 -24 -10 -35 -10 -17 0 -17 2 -5 10 8 5 24 10 35 10 17 0 17 -2 5
-10z m697 -6 c-3 -3 -12 -4 -19 -1 -8 3 -5 6 6 6 11 1 17 -2 13 -5z m46 -11
c-7 -2 -19 -2 -25 0 -7 3 -2 5 12 5 14 0 19 -2 13 -5z m-1379 -166 c1 -45 8
-92 14 -104 17 -30 15 -33 -13 -33 -17 0 -38 14 -63 41 -48 54 -48 55 -14 73
26 13 31 23 37 68 4 29 10 57 13 62 11 20 24 -31 26 -107z m576 75 c0 -5 17
-13 37 -18 72 -18 44 -44 -47 -44 -42 1 -44 2 -26 15 19 14 19 15 -8 15 -18 0
-26 4 -23 13 2 6 14 11 26 10 11 -2 21 2 21 7 0 6 5 10 10 10 6 0 10 -4 10 -8z
m333 -39 c3 -10 15 -53 28 -96 24 -84 22 -93 -26 -102 -29 -5 -31 -2 -75 85
-25 49 -46 94 -48 99 -3 8 24 15 110 30 4 0 9 -7 11 -16z m-256 -41 c11 -7 41
-69 44 -89 1 -5 5 -19 10 -32 12 -31 5 -37 -27 -22 -15 6 -28 10 -30 8 -4 -4
63 -36 188 -91 51 -22 58 -28 68 -65 6 -23 8 -46 5 -51 -3 -5 -53 13 -111 41
-58 27 -108 49 -111 49 -2 0 3 -7 11 -16 18 -18 11 -38 -11 -30 -8 3 -11 1 -8
-4 17 -27 -118 -2 -151 28 -10 10 -34 25 -51 32 -18 8 -33 18 -33 22 0 4 -6 5
-14 2 -19 -7 -56 30 -56 56 0 25 -3 25 75 -7 37 -15 64 -32 61 -38 -2 -7 2
-12 10 -12 8 0 14 4 14 9 0 4 25 -2 56 -13 30 -12 57 -19 60 -16 4 4 -113 51
-233 93 -50 18 -53 21 -53 52 0 29 2 33 21 27 16 -5 20 -3 17 6 -3 8 -12 13
-21 13 -8 -1 -17 6 -20 16 -5 21 14 17 97 -19 l48 -21 -6 24 c-6 25 17 45 30
25 4 -6 10 -5 17 5 16 20 82 32 104 18z m-348 -12 c21 0 22 -2 10 -17 -10 -11
-10 -14 -1 -9 7 4 12 1 12 -8 0 -9 3 -16 8 -16 9 0 13 -190 3 -190 -3 0 -17
-10 -31 -21 l-25 -21 27 16 c39 23 41 21 33 -26 -16 -106 -35 -128 -109 -128
-26 0 -38 7 -59 37 -21 30 -27 33 -27 18 0 -15 -3 -17 -9 -7 -4 8 -12 14 -17
14 -26 1 -33 10 -23 34 6 17 6 23 -1 19 -6 -3 -10 -13 -10 -21 0 -16 -2 -16
-24 -8 -20 8 -21 28 -1 44 8 7 15 17 15 22 0 5 -11 -3 -24 -19 -21 -24 -26
-26 -40 -14 -15 13 -14 18 21 55 21 22 27 32 13 21 -13 -11 -31 -28 -40 -39
-14 -16 -19 -17 -38 -5 -28 17 -28 43 -1 80 11 16 16 29 10 29 -6 0 -17 -13
-26 -30 -19 -36 -38 -40 -29 -5 4 15 2 25 -5 25 -11 0 -15 -18 -13 -55 2 -19
0 -18 -18 4 -11 13 -20 27 -20 32 0 14 18 11 22 -3 3 -7 8 6 11 28 8 51 36 63
77 34 14 -10 46 -20 69 -22 l43 -3 19 -59 c10 -33 17 -62 16 -65 -1 -3 13 -22
32 -41 l33 -35 -35 70 c-19 39 -38 80 -41 93 -3 12 -9 32 -12 45 l-7 22 24
-20 c21 -17 21 -16 -3 10 -28 32 -44 103 -24 111 6 2 29 6 51 8 22 2 48 7 58
11 11 5 25 1 36 -9 16 -15 19 -15 24 -2 4 10 1 13 -9 9 -7 -3 -14 0 -14 7 0 8
8 10 23 6 12 -3 33 -6 46 -6z m-519 -26 c0 -8 5 -12 11 -8 19 12 86 -33 82
-56 -1 -3 3 -13 9 -23 11 -22 -17 -61 -36 -49 -6 3 -14 7 -18 8 -5 1 -11 2
-15 3 -5 1 -3 5 4 9 8 5 8 12 -3 26 -13 19 -14 18 -14 -13 0 -28 -2 -32 -15
-21 -11 9 -12 17 -4 33 10 17 9 19 -6 13 -15 -5 -17 -2 -11 24 3 19 2 29 -4
25 -14 -8 -13 -65 2 -120 12 -44 34 -63 67 -56 7 1 10 -2 7 -7 -3 -6 2 -8 12
-5 21 5 47 -21 37 -38 -4 -6 -18 -9 -32 -6 -23 4 -23 3 -9 -11 13 -13 20 -13
43 -4 26 12 27 11 8 -3 -11 -9 -28 -14 -38 -11 -16 4 -16 2 -5 -11 11 -14 11
-15 -1 -11 -8 2 -18 17 -23 33 -4 16 -19 39 -33 52 l-25 24 0 -43 c0 -44 13
-71 58 -120 14 -15 22 -31 18 -35 -8 -8 -66 50 -66 66 0 5 -4 11 -10 13 -5 2
-12 43 -15 92 -3 50 -9 94 -15 100 -14 14 -13 119 2 134 17 17 38 15 38 -4z
m1267 10 c-3 -3 -12 -4 -19 -1 -8 3 -5 6 6 6 11 1 17 -2 13 -5z m8 -24 c66
-24 46 -25 -30 -1 -33 11 -51 19 -40 19 11 0 43 -8 70 -18z m65 5 c19 -7 28
-13 20 -13 -8 0 -31 6 -50 13 -19 7 -28 13 -20 13 8 0 31 -6 50 -13z m-1287
-172 c-7 -2 -19 -2 -25 0 -7 3 -2 5 12 5 14 0 19 -2 13 -5z m1445 -151 c3 -20
1 -21 -27 -11 -29 10 -41 36 -24 52 11 11 48 -19 51 -41z m-572 -104 c145 -79
274 -151 286 -161 l23 -18 -25 12 c-41 20 -496 267 -532 289 -18 11 -29 20
-24 20 5 0 127 -64 272 -142z m624 83 c15 -28 12 -51 -5 -51 -8 0 -15 1 -15 3
0 1 -4 17 -9 35 -8 25 -7 32 4 32 8 0 19 -9 25 -19z m-1414 -46 c-22 -17 -56
-20 -56 -6 0 10 23 18 55 20 20 0 20 0 1 -14z m765 -118 c13 -10 -4 -3 -38 14
-34 18 -72 41 -85 52 -27 22 87 -39 123 -66z m265 7 c68 -36 124 -67 124 -70
0 -5 -153 71 -220 110 -89 51 -25 25 96 -40z m104 6 c30 -16 51 -29 45 -29 -5
0 -35 13 -65 29 -30 16 -50 29 -45 29 6 0 35 -13 65 -29z m-615 -45 l20 -16
-20 10 c-11 5 -29 17 -40 26 l-20 16 20 -10 c11 -5 29 -17 40 -26z"/>
<path d="M1148 1403 c7 -3 16 -2 19 1 4 3 -2 6 -13 5 -11 0 -14 -3 -6 -6z"/>
<path d="M1215 1380 c10 -11 20 -20 22 -20 2 0 -2 9 -9 20 -7 11 -17 20 -22
20 -5 0 -1 -9 9 -20z"/>
<path d="M1044 1348 l-19 -23 23 19 c21 18 27 26 19 26 -2 0 -12 -10 -23 -22z"/>
<path d="M998 1193 c4 -33 6 -35 13 -15 8 22 3 52 -10 52 -4 0 -5 -17 -3 -37z"/>
<path d="M680 1160 c0 -13 18 -22 24 -11 3 5 -1 11 -9 15 -8 3 -15 1 -15 -4z"/>
<path d="M324 1026 c1 -8 5 -18 8 -22 4 -3 5 1 4 10 -1 8 -5 18 -8 22 -4 3 -5
-1 -4 -10z"/>
<path d="M500 866 c0 -3 9 -10 20 -16 11 -6 20 -8 20 -6 0 3 -9 10 -20 16 -11
6 -20 8 -20 6z"/>
<path d="M490 789 c0 -5 11 -9 25 -9 14 0 25 2 25 4 0 2 -11 6 -25 8 -14 3
-25 1 -25 -3z"/>
<path d="M955 669 c-4 -6 -14 -8 -22 -5 -8 3 -12 2 -9 -3 7 -11 -20 -34 -32
-27 -5 3 -9 -1 -9 -9 0 -20 2 -20 54 20 25 19 41 35 35 35 -6 0 -14 -5 -17
-11z"/>
<path d="M960 614 c-33 -24 -49 -25 -95 -10 -11 4 -3 -3 19 -14 21 -12 41 -18
45 -13 3 5 24 22 46 36 22 15 35 27 30 27 -6 -1 -26 -12 -45 -26z"/>
<path d="M940 566 c0 -2 7 -6 15 -10 8 -3 15 -1 15 4 0 6 -7 10 -15 10 -8 0
-15 -2 -15 -4z"/>
<path d="M878 434 c6 -11 19 -27 29 -35 17 -13 17 -13 3 5 -13 16 -12 20 5 32
10 8 14 14 8 14 -7 0 -15 -5 -18 -10 -5 -8 -12 -7 -23 2 -13 11 -14 11 -4 -8z"/>
<path d="M948 418 c9 -9 9 -15 -1 -27 -11 -14 -10 -14 6 -2 13 10 15 17 6 27
-6 8 -14 14 -17 14 -3 0 -1 -5 6 -12z"/>
<path d="M472 629 c-9 -13 -19 -18 -30 -14 -13 5 -14 3 -5 -6 9 -8 17 -7 37 7
25 19 33 34 18 34 -4 0 -13 -9 -20 -21z"/>
<path d="M515 619 c4 -5 1 -18 -6 -27 -11 -13 -8 -12 9 2 26 23 26 22 6 30 -9
3 -12 2 -9 -5z"/>
<path d="M599 613 c-13 -16 -12 -17 4 -4 9 7 17 15 17 17 0 8 -8 3 -21 -13z"/>
<path d="M480 576 c0 -2 8 -10 18 -17 15 -13 16 -12 3 4 -13 16 -21 21 -21 13z"/>
<path d="M547 493 l-28 -28 -20 24 c-10 13 -19 19 -19 13 0 -5 7 -15 15 -22 9
-7 14 -18 12 -24 -3 -7 3 -12 13 -12 10 0 16 5 13 12 -2 6 3 17 12 24 13 11
19 10 35 -5 18 -17 18 -17 -8 -42 -15 -14 -4 -8 24 14 29 21 57 47 64 58 10
16 10 18 -1 8 -10 -10 -16 -10 -28 0 -14 10 -14 10 -4 -4 11 -13 10 -19 -5
-33 -18 -15 -20 -15 -36 3 -10 11 -15 25 -11 30 11 18 1 12 -28 -16z"/>
<path d="M375 500 c-3 -5 -2 -10 4 -10 5 0 13 5 16 10 3 6 2 10 -4 10 -5 0
-13 -4 -16 -10z"/>
<path d="M334 468 l-19 -23 23 19 c21 18 27 26 19 26 -2 0 -12 -10 -23 -22z"/>
<path d="M580 375 c-14 -8 -20 -14 -14 -15 5 0 19 7 30 15 24 18 16 19 -16 0z"/>
<path d="M610 320 c-8 -5 -10 -10 -5 -10 6 0 17 5 25 10 8 5 11 10 5 10 -5 0
-17 -5 -25 -10z"/>
<path d="M16 915 c4 -8 12 -15 19 -15 7 0 15 7 19 15 4 11 -1 15 -19 15 -18 0
-23 -4 -19 -15z"/>
<path d="M145 858 l-40 -43 40 35 c22 19 44 38 50 42 5 5 5 8 -1 8 -5 0 -28
-19 -49 -42z"/>
<path d="M115 790 c-10 -11 -16 -22 -13 -25 3 -3 13 4 23 15 10 11 16 22 13
25 -3 3 -13 -4 -23 -15z"/>
<path d="M152 768 c-7 -7 -11 -23 -11 -37 l2 -26 4 25 c3 14 10 31 15 38 13
15 6 16 -10 0z"/>
</g>
</svg>
